<?xml version="1.0" encoding="utf-8"?>
<!-- Generator: Adobe Illustrator 25.2.3, SVG Export Plug-In . SVG Version: 6.00 Build 0)  -->
<svg version="1.1" id="Layer_1" xmlns="http://www.w3.org/2000/svg" xmlns:xlink="http://www.w3.org/1999/xlink" x="0px" y="0px"
	 viewBox="0 0 120 35" style="enable-background:new 0 0 120 35;" xml:space="preserve">
<style type="text/css">
	.st0{fill:#50473D;}
</style>
<g>
	<g>
		<polygon class="st0" points="11.23,18.77 26.55,3.01 23.9,2.23 18.43,2.23 		"/>
	</g>
	<g>
		<polygon class="st0" points="25.65,23.36 35.69,11.21 29.49,3.87 28.13,3.47 16.83,15.09 		"/>
	</g>
	<g>
		<polygon class="st0" points="16.84,2.23 11.62,2.23 5.61,4.14 0,11.37 8.44,21.51 		"/>
	</g>
	<g>
		<polygon class="st0" points="16.02,15.93 9.43,22.7 17.84,32.8 24.89,24.24 		"/>
	</g>
</g>
<g>
	<path class="st0" d="M47.04,13.73l6.89,10.18h-2.45L45.7,15h-0.02l-2,2.11v6.8h-2V6.74h2v7.98h0.05l7.3-7.98h2.4L47.04,13.73z"/>
	<path class="st0" d="M57.04,5.48v18.43h-1.95V5.48H57.04z"/>
	<path class="st0" d="M60.53,14.18c-0.08,0.08-0.14,0.1-0.2,0.08c-0.06-0.02-0.09-0.09-0.09-0.22v-1.66c0.63-0.42,1.34-0.76,2.13-1
		c0.79-0.24,1.59-0.36,2.43-0.36c1.48,0,2.57,0.34,3.25,1.02c0.69,0.68,1.03,1.8,1.03,3.36v8.5H67.2l-0.09-1.79h-0.02
		c-0.2,0.33-0.44,0.63-0.74,0.88c-0.29,0.26-0.62,0.47-0.97,0.65c-0.36,0.17-0.73,0.31-1.11,0.4c-0.39,0.09-0.77,0.14-1.14,0.14
		c-0.6,0.01-1.16-0.05-1.67-0.2c-0.51-0.15-0.94-0.38-1.3-0.68s-0.64-0.68-0.84-1.13c-0.2-0.45-0.3-0.98-0.3-1.56
		c0-1.15,0.36-2.11,1.07-2.87c0.71-0.76,1.77-1.25,3.17-1.46l3.9-0.57v-0.2c0-0.54-0.05-1-0.16-1.36c-0.11-0.36-0.26-0.65-0.48-0.85
		s-0.48-0.35-0.81-0.43c-0.32-0.08-0.71-0.12-1.14-0.12c-0.73,0-1.41,0.12-2.05,0.36S61.21,13.7,60.53,14.18z M67.22,18.87v-1.63
		l-3.29,0.41c-0.85,0.12-1.53,0.4-2.06,0.85c-0.53,0.45-0.79,1.09-0.79,1.94c0,0.68,0.23,1.2,0.69,1.56
		c0.46,0.36,1.05,0.54,1.78,0.54c0.48,0,0.95-0.11,1.39-0.32c0.45-0.21,0.84-0.49,1.18-0.83c0.34-0.34,0.61-0.73,0.81-1.17
		C67.12,19.8,67.22,19.34,67.22,18.87z"/>
	<path class="st0" d="M71.19,29.39v-1.36c0-0.12,0.08-0.17,0.23-0.16c0.17,0.05,0.33,0.08,0.49,0.09c0.16,0.01,0.31,0.02,0.47,0.02
		c0.5,0,0.97-0.14,1.42-0.41s0.8-0.76,1.05-1.47l0.86-2.13v-0.09l-5.06-12.36h2.18l3.56,9.45l0.29,1l0.27-1l3.22-9.45h2.04
		l-5.21,13.83c-0.24,0.62-0.5,1.19-0.76,1.7c-0.26,0.51-0.57,0.96-0.93,1.33c-0.36,0.37-0.76,0.66-1.21,0.86
		c-0.45,0.2-0.99,0.31-1.61,0.31C71.92,29.55,71.49,29.5,71.19,29.39z"/>
	<path class="st0" d="M94.56,11.87c0,0.89-0.15,1.68-0.46,2.37c-0.31,0.69-0.75,1.27-1.33,1.73c-0.57,0.47-1.27,0.82-2.07,1.07
		c-0.81,0.24-1.71,0.36-2.71,0.36h-2.13v6.51h-1.99L83.84,6.74h4.23c0.91,0,1.76,0.1,2.54,0.3c0.79,0.2,1.48,0.5,2.07,0.92
		c0.59,0.42,1.05,0.95,1.39,1.6C94.39,10.21,94.56,10.98,94.56,11.87z M92.48,11.91c0-0.71-0.13-1.29-0.39-1.75
		c-0.26-0.45-0.59-0.81-1.01-1.07c-0.42-0.26-0.9-0.43-1.44-0.53s-1.11-0.15-1.7-0.15h-2.11v7.35h1.77c0.68,0,1.32-0.06,1.92-0.18
		c0.6-0.12,1.12-0.33,1.55-0.62c0.44-0.29,0.78-0.69,1.03-1.19C92.35,13.27,92.48,12.65,92.48,11.91z"/>
	<path class="st0" d="M102.27,6.74l5.87,17.16h-2.06l-1.54-4.9h-7.01l-1.56,4.9H93.9l5.85-17.16H102.27z M100.95,8.29h-0.02
		l-2.81,9.09h5.8L100.95,8.29z"/>
	<path class="st0" d="M117.91,6.74H120l-5.69,9.52v7.64h-2.06v-7.39l-5.71-9.77h2.18l4.58,7.96h0.05L117.91,6.74z"/>
</g>
</svg>
