<svg version="1.1" id="Layer_1" xmlns="http://www.w3.org/2000/svg" x="0" y="0" viewBox="0 0 120 35" style="enable-background:new 0 0 120 35" xml:space="preserve"><style>.st0{fill:#50473d}</style><path class="st0" d="M11.23 18.77 26.55 3.01l-2.65-.78h-5.47zM25.65 23.36l10.04-12.15-6.2-7.34-1.36-.4-11.3 11.62zM16.84 2.23h-5.22L5.61 4.14 0 11.37l8.44 10.14zM16.02 15.93 9.43 22.7l8.41 10.1 7.05-8.56zM47.04 13.73l6.89 10.18h-2.45L45.7 15h-.02l-2 2.11v6.8h-2V6.74h2v7.98h.05l7.3-7.98h2.4l-6.39 6.99zM57.04 5.48v18.43h-1.95V5.48h1.95zM60.53 14.18c-.08.08-.14.1-.2.08-.06-.02-.09-.09-.09-.22v-1.66c.63-.42 1.34-.76 2.13-1 .79-.24 1.59-.36 2.43-.36 1.48 0 2.57.34 3.25 1.02.69.68 1.03 1.8 1.03 3.36v8.5H67.2l-.09-1.79h-.02c-.2.33-.44.63-.74.88-.29.26-.62.47-.97.65-.36.17-.73.31-1.11.4-.39.09-.77.14-1.14.14-.6.01-1.16-.05-1.67-.2-.51-.15-.94-.38-1.3-.68s-.64-.68-.84-1.13c-.2-.45-.3-.98-.3-1.56 0-1.15.36-2.11 1.07-2.87.71-.76 1.77-1.25 3.17-1.46l3.9-.57v-.2c0-.54-.05-1-.16-1.36-.11-.36-.26-.65-.48-.85s-.48-.35-.81-.43c-.32-.08-.71-.12-1.14-.12-.73 0-1.41.12-2.05.36s-1.31.59-1.99 1.07zm6.69 4.69v-1.63l-3.29.41c-.85.12-1.53.4-2.06.85-.53.45-.79 1.09-.79 1.94 0 .68.23 1.2.69 1.56.46.36 1.05.54 1.78.54.48 0 .95-.11 1.39-.32.45-.21.84-.49 1.18-.83.34-.34.61-.73.81-1.17.19-.42.29-.88.29-1.35zM71.19 29.39v-1.36c0-.12.08-.17.23-.16.17.05.33.08.49.09.16.01.31.02.47.02.5 0 .97-.14 1.42-.41s.8-.76 1.05-1.47l.86-2.13v-.09l-5.06-12.36h2.18l3.56 9.45.29 1 .27-1 3.22-9.45h2.04L77 25.35c-.24.62-.5 1.19-.76 1.7s-.57.96-.93 1.33c-.36.37-.76.66-1.21.86-.45.2-.99.31-1.61.31-.57 0-1-.05-1.3-.16zM94.56 11.87c0 .89-.15 1.68-.46 2.37-.31.69-.75 1.27-1.33 1.73-.57.47-1.27.82-2.07 1.07-.81.24-1.71.36-2.71.36h-2.13v6.51h-1.99l-.03-17.17h4.23c.91 0 1.76.1 2.54.3.79.2 1.48.5 2.07.92.59.42 1.05.95 1.39 1.6.32.65.49 1.42.49 2.31zm-2.08.04c0-.71-.13-1.29-.39-1.75a2.97 2.97 0 0 0-1.01-1.07c-.42-.26-.9-.43-1.44-.53s-1.11-.15-1.7-.15h-2.11v7.35h1.77c.68 0 1.32-.06 1.92-.18.6-.12 1.12-.33 1.55-.62.44-.29.78-.69 1.03-1.19s.38-1.12.38-1.86zM102.27 6.74l5.87 17.16h-2.06l-1.54-4.9h-7.01l-1.56 4.9H93.9l5.85-17.16h2.52zm-1.32 1.55h-.02l-2.81 9.09h5.8l-2.97-9.09zM117.91 6.74H120l-5.69 9.52v7.64h-2.06v-7.39l-5.71-9.77h2.18l4.58 7.96h.05l4.56-7.96z"/></svg>